
		<svg xmlns="http://www.w3.org/2000/svg" xmlns:xlink="http://www.w3.org/1999/xlink" version="1.1" width="3139.5348837209303" height="879.0697674418604">
			<rect fill="#ffffff" width="3139.5348837209303" height="879.0697674418604"/>
			<g transform="scale(6.976744186046512) translate(10, 10)">
				<defs id="SvgjsDefs2860"></defs><g id="SvgjsG2861" featureKey="root" fill="#ffffff"></g><g id="SvgjsG2862" featureKey="symbol1" fill="#0671af" transform="matrix(0.07588075880758807,0,0,0.07588075880758807,-2.9214092140921406,11.154471544715447)"><polygon xmlns="http://www.w3.org/2000/svg" class="st0" points="696.7,239.6 508.5,37.5 508.5,441.7 " style="stroke: #0671af; stroke-width: 1.1669; stroke-miterlimit: 10;"></polygon><polygon xmlns="http://www.w3.org/2000/svg" class="st0" points="822.2,454.8 832.1,178.8 546.2,464.6 " style="stroke: #0671af; stroke-width: 1.1669; stroke-miterlimit: 10;"></polygon><polygon xmlns="http://www.w3.org/2000/svg" class="st0" points="758.9,695.7 961,507.5 556.8,507.5 " style="stroke: #0671af; stroke-width: 1.1669; stroke-miterlimit: 10;"></polygon><polygon xmlns="http://www.w3.org/2000/svg" class="st0" points="543.7,821.2 819.7,831.1 533.9,545.2 " style="stroke: #0671af; stroke-width: 1.1669; stroke-miterlimit: 10;"></polygon><polygon xmlns="http://www.w3.org/2000/svg" class="st0" points="302.8,757.9 491,960 491,555.8 " style="stroke: #0671af; stroke-width: 1.1669; stroke-miterlimit: 10;"></polygon><polygon xmlns="http://www.w3.org/2000/svg" class="st0" points="177.3,542.7 167.4,818.7 453.3,532.9 " style="stroke: #0671af; stroke-width: 1.1669; stroke-miterlimit: 10;"></polygon><polygon xmlns="http://www.w3.org/2000/svg" class="st0" points="240.6,301.8 38.5,490 442.7,490 " style="stroke: #0671af; stroke-width: 1.1669; stroke-miterlimit: 10;"></polygon><polygon xmlns="http://www.w3.org/2000/svg" class="st0" points="455.8,176.3 179.8,166.4 465.6,452.3 " style="stroke: #0671af; stroke-width: 1.1669; stroke-miterlimit: 10;"></polygon><circle xmlns="http://www.w3.org/2000/svg" class="st0" cx="502.7" cy="497" r="31.4" style="stroke: #0671af; stroke-width: 1.1669; stroke-miterlimit: 10;"></circle></g><g id="SvgjsG2863" featureKey="text1" fill="#0671af" transform="matrix(3.013033477187585,0,0,3.013033477187585,87.74592694796627,-19.286686202830065)"><path d="M6.9 13.38 q2.14 0 3.42 1.5 t1.28 4.06 q0 2.34 -1.23 3.84 t-3.31 1.5 q-2.04 0 -3.1 -1.56 l-0.04 0 l0 4.92 l-2.84 0 l0 -13.98 l2.7 0 l0 1.32 l0.04 0 q1.02 -1.6 3.08 -1.6 z M3.82 18.86 q0 1.52 0.64 2.4 t1.84 0.88 q1.24 0 1.85 -0.88 t0.61 -2.4 q0 -1.56 -0.66 -2.45 t-1.84 -0.89 t-1.81 0.88 t-0.63 2.46 z M19.34 13.38 q0.36 0 0.62 0.1 l0 2.64 q-0.46 -0.1 -1.02 -0.1 q-2.8 0 -2.8 3.32 l0 4.66 l-2.84 0 l0 -10.34 l2.7 0 l0 1.92 l0.04 0 q0.42 -1 1.33 -1.6 t1.97 -0.6 z M25.84 13.38 q4.52 0.02 4.52 2.94 l0 5.48 q0 1.52 0.36 2.2 l-2.88 0 q-0.16 -0.48 -0.2 -1 q-1.26 1.28 -3.48 1.28 q-1.62 0 -2.57 -0.82 t-0.95 -2.28 q0 -1.42 0.9 -2.2 q0.92 -0.82 3.34 -1.04 q1.72 -0.18 2.18 -0.45 t0.46 -0.83 q0 -0.7 -0.42 -1.04 t-1.4 -0.34 q-0.9 0 -1.36 0.37 t-0.54 1.19 l-2.84 0 q0.1 -1.7 1.4 -2.58 t3.48 -0.88 z M23.48 21.06 q0 1.32 1.74 1.32 q2.28 -0.02 2.3 -2.34 l0 -1.1 q-0.34 0.34 -1.72 0.5 q-1.2 0.14 -1.76 0.49 t-0.56 1.13 z M37.52 13.38 q2.1 0 3.42 1.07 t1.44 2.85 l-2.78 0 q-0.28 -1.78 -2.1 -1.78 q-1.12 0 -1.77 0.92 t-0.65 2.44 q0 1.46 0.62 2.36 t1.74 0.9 q1.94 0 2.26 -2.1 l2.74 0 q-0.28 2.06 -1.59 3.15 t-3.39 1.09 q-2.3 0 -3.76 -1.47 t-1.46 -3.83 q0 -2.56 1.44 -4.08 t3.84 -1.52 z M47.64 10.56 l0 3.1 l2.08 0 l0 1.9 l-2.08 0 l0 5.12 q0 0.72 0.24 0.96 t0.96 0.24 q0.52 0 0.88 -0.08 l0 2.22 q-0.6 0.1 -1.68 0.1 q-1.64 0 -2.44 -0.56 t-0.8 -1.94 l0 -6.06 l-1.72 0 l0 -1.9 l1.72 0 l0 -3.1 l2.84 0 z M56.1 13.38 q2.48 0 3.92 1.51 t1.44 3.95 q0 2.46 -1.47 3.95 t-3.89 1.49 q-2.46 0 -3.9 -1.51 t-1.44 -3.93 q0 -2.5 1.47 -3.98 t3.87 -1.48 z M53.6 18.84 q0 1.58 0.64 2.44 t1.86 0.86 q1.26 0 1.89 -0.88 t0.63 -2.42 q0 -1.6 -0.65 -2.46 t-1.89 -0.86 q-1.2 0 -1.84 0.86 t-0.64 2.46 z M69.12 13.38 q2.14 0 3.42 1.5 t1.28 4.06 q0 2.34 -1.23 3.84 t-3.31 1.5 q-2.04 0 -3.1 -1.56 l-0.04 0 l0 4.92 l-2.84 0 l0 -13.98 l2.7 0 l0 1.32 l0.04 0 q1.02 -1.6 3.08 -1.6 z M66.03999999999999 18.86 q0 1.52 0.64 2.4 t1.84 0.88 q1.24 0 1.85 -0.88 t0.61 -2.4 q0 -1.56 -0.66 -2.45 t-1.84 -0.89 t-1.81 0.88 t-0.63 2.46 z M78.44 9.72 l0 2.34 l-2.84 0 l0 -2.34 l2.84 0 z M78.44 13.66 l0 10.34 l-2.84 0 l0 -10.34 l2.84 0 z M85.44 13.38 q4.52 0.02 4.52 2.94 l0 5.48 q0 1.52 0.36 2.2 l-2.88 0 q-0.16 -0.48 -0.2 -1 q-1.26 1.28 -3.48 1.28 q-1.62 0 -2.57 -0.82 t-0.95 -2.28 q0 -1.42 0.9 -2.2 q0.92 -0.82 3.34 -1.04 q1.72 -0.18 2.18 -0.45 t0.46 -0.83 q0 -0.7 -0.42 -1.04 t-1.4 -0.34 q-0.9 0 -1.36 0.37 t-0.54 1.19 l-2.84 0 q0.1 -1.7 1.4 -2.58 t3.48 -0.88 z M83.08 21.06 q0 1.32 1.74 1.32 q2.28 -0.02 2.3 -2.34 l0 -1.1 q-0.34 0.34 -1.72 0.5 q-1.2 0.14 -1.76 0.49 t-0.56 1.13 z M98.1 13.38 q1.98 0 2.87 1 t0.89 3.18 l0 6.44 l-2.84 0 l0 -5.86 q0 -1.28 -0.41 -1.9 t-1.41 -0.62 q-1.16 0 -1.68 0.7 t-0.52 2.3 l0 5.38 l-2.84 0 l0 -10.34 l2.7 0 l0 1.44 l0.06 0 q1.06 -1.72 3.18 -1.72 z M108.25999999999999 13.38 q2.08 0 3.25 0.84 t1.31 2.46 l-2.7 0 q-0.06 -0.74 -0.54 -1.07 t-1.4 -0.33 q-0.8 0 -1.19 0.24 t-0.39 0.72 q0 0.36 0.26 0.6 t0.79 0.42 t1.17 0.3 q1.94 0.38 2.74 0.78 t1.17 0.96 t0.37 1.38 q0 1.74 -1.27 2.67 t-3.45 0.93 q-2.28 0 -3.55 -0.98 t-1.31 -2.66 l2.7 0 q0 0.8 0.62 1.27 t1.56 0.47 q0.8 0 1.33 -0.35 t0.53 -0.97 q0 -0.4 -0.33 -0.66 t-0.93 -0.46 t-1.86 -0.46 q-1 -0.2 -1.78 -0.54 t-1.19 -0.89 t-0.41 -1.35 q0 -1.02 0.49 -1.78 t1.5 -1.15 t2.51 -0.39 z"></path></g><g id="SvgjsG2864" featureKey="text3" fill="#0671af" transform="matrix(1.1523078955046617,0,0,1.1523078955046617,89.65430761761202,72.82362952624531)"><path d="M0.3 9.12 l0 -2.34 l11.1 0 l0 2.34 l-4.2 0 l0 10.88 l-2.7 0 l0 -10.88 l-4.2 0 z M18.86 20 l0 -5.68 c0 -1.2 -0.36 -1.74 -1.14 -1.74 c-1.48 0 -2.1 2.04 -2.28 2.82 l0 4.6 l-2.5 0 l0 -14.36 l2.5 0 l0 6.4 c0.38 -0.64 1.22 -1.6 2.96 -1.6 c1.52 0 2.96 0.66 2.96 3.22 l0 6.34 l-2.5 0 z M31.979999999999997 15.940000000000001 l-6.04 0 c0.08 1.42 0.52 2.42 2.04 2.42 c1.06 0 1.54 -0.42 1.8 -1.08 l2.2 0.46 c-0.5 1.66 -1.78 2.54 -4.04 2.54 c-2.96 0 -4.64 -1.56 -4.64 -4.92 c0 -2.46 1.1 -4.92 4.6 -4.92 c2.66 0 4.08 1.5 4.08 4.44 l0 1.06 z M27.86 12.36 c-1.08 0 -1.68 0.42 -1.88 1.82 l3.38 0 l0 -0.16 c0 -0.92 -0.36 -1.66 -1.5 -1.66 z  M37.760000000000005 16.36 l2.64 -0.56 c0.02 1.64 1.14 2.24 2.5 2.24 c1.26 0 2.1 -0.52 2.1 -1.42 c0 -2.56 -6.88 -1.44 -6.88 -6.24 c0 -2.5 1.86 -3.88 4.74 -3.88 c2.94 0 4.82 1.46 4.72 3.56 l-2.64 0.56 c-0.04 -0.98 -0.5 -1.88 -2.14 -1.88 c-1.28 0 -1.94 0.54 -1.94 1.38 c0 2.72 6.88 1.5 6.88 6.16 c0 2.28 -1.66 4 -4.88 4 c-3.46 0 -5.22 -1.98 -5.1 -3.92 z  M53.980000000000004 20.28 c-3.44 0 -4.62 -2.18 -4.62 -4.92 s1.18 -4.92 4.62 -4.92 s4.62 2.14 4.62 4.92 s-1.18 4.92 -4.62 4.92 z M53.980000000000004 18.36 c1.6 0 2 -1.46 2 -3 s-0.4 -3 -2 -3 s-2 1.46 -2 3 s0.4 3 2 3 z M66.2 17.02 l2.26 0.46 c-0.5 1.64 -1.62 2.8 -3.9 2.8 c-2.98 0 -4.44 -1.82 -4.44 -4.94 c0 -3.68 2.04 -4.9 4.52 -4.9 c2.28 0 3.98 1.08 3.76 3.1 l-2.5 0.48 c0.1 -1.24 -0.48 -1.66 -1.24 -1.66 c-1.52 0 -1.92 1.56 -1.92 3.1 c0 2.02 0.7 2.9 1.84 2.9 c0.9 0 1.48 -0.58 1.62 -1.34 z M70.03999999999999 7.5 c0 -0.82 0.66 -1.48 1.48 -1.48 s1.48 0.66 1.48 1.48 s-0.66 1.48 -1.48 1.48 s-1.48 -0.66 -1.48 -1.48 z M70.27999999999999 20 l0 -9.28 l2.5 0 l0 9.28 l-2.5 0 z M83.46 15.940000000000001 l-6.04 0 c0.08 1.42 0.52 2.42 2.04 2.42 c1.06 0 1.54 -0.42 1.8 -1.08 l2.2 0.46 c-0.5 1.66 -1.78 2.54 -4.04 2.54 c-2.96 0 -4.64 -1.56 -4.64 -4.92 c0 -2.46 1.1 -4.92 4.6 -4.92 c2.66 0 4.08 1.5 4.08 4.44 l0 1.06 z M79.34 12.36 c-1.08 0 -1.68 0.42 -1.88 1.82 l3.38 0 l0 -0.16 c0 -0.92 -0.36 -1.66 -1.5 -1.66 z M84.62 12.64 l0 -1.92 l1.36 0 l0.1 -2.62 l2.36 0 l0 2.62 l2.58 0 l0 1.92 l-2.58 0 l0 4.48 c0 0.72 0.16 1.06 0.62 1.06 c0.48 0 0.68 -0.48 0.78 -1.28 l1.92 0.76 c-0.42 1.42 -1 2.54 -3.02 2.54 c-2.12 0 -2.8 -1.52 -2.8 -3.1 l0 -4.46 l-1.32 0 z M92.32000000000001 23.84 l1.22 -1.62 s0.5 0.6 1.2 0.6 c0.72 0 1.04 -0.66 1.18 -1.68 l0.18 -1.28 l-4 -9.14 l2.8 0 l1.82 4.52 c0.2 0.5 0.4 1.32 0.54 1.9 c0.14 -0.58 0.34 -1.38 0.52 -1.9 l1.54 -4.52 l2.64 0 l-3.52 9.12 l-0.32 1.86 c-0.26 1.54 -1.1 3.14 -3.32 3.14 c-1.74 0 -2.48 -1 -2.48 -1 z  M106.9 12.64 l0 -1.92 l1.38 0 l0 -1.14 c0 -2.6 1.4 -4.22 3.96 -4.22 c2.24 0 2.9 1.06 2.9 1.06 l-1.56 1.76 c-0.28 -0.42 -0.62 -0.76 -1.34 -0.76 c-1.02 0 -1.46 0.9 -1.46 2.46 l0 0.84 l2.34 0 l0 1.92 l-2.34 0 l0 7.36 l-2.5 0 l0 -7.36 l-1.38 0 z M118.74 20.28 c-3.44 0 -4.62 -2.18 -4.62 -4.92 s1.18 -4.92 4.62 -4.92 s4.62 2.14 4.62 4.92 s-1.18 4.92 -4.62 4.92 z M118.74 18.36 c1.6 0 2 -1.46 2 -3 s-0.4 -3 -2 -3 s-2 1.46 -2 3 s0.4 3 2 3 z M125.36 20 l0 -9.28 l2.34 0 l0 1.62 c0.4 -0.94 1 -1.9 2.46 -1.9 c1.14 0 1.66 0.8 1.66 0.8 l-1.4 1.98 s-0.32 -0.58 -0.86 -0.58 c-0.88 0 -1.44 1.44 -1.7 2.6 l0 4.76 l-2.5 0 z  M137.7 20 l0 -13.22 l4.18 0 c3.8 0 5.16 1.68 5.16 4.48 c0 2.56 -1.56 4.36 -5.44 4.36 l-1.2 0 l0 4.38 l-2.7 0 z M141.76 9.06 l-1.36 0 l0 4.28 l1.18 0 c1.8 0 2.62 -0.64 2.62 -2.08 c0 -1.58 -0.74 -2.2 -2.44 -2.2 z M148.94 20 l0 -9.28 l2.34 0 l0 1.62 c0.4 -0.94 1 -1.9 2.46 -1.9 c1.14 0 1.66 0.8 1.66 0.8 l-1.4 1.98 s-0.32 -0.58 -0.86 -0.58 c-0.88 0 -1.44 1.44 -1.7 2.6 l0 4.76 l-2.5 0 z M164.73999999999998 20.12 c-1.92 0.24 -2.62 -0.52 -2.84 -1.24 c-0.44 0.66 -1.3 1.4 -2.76 1.4 c-1.66 0 -3.08 -0.9 -3.08 -2.64 c0 -2.16 2.16 -3.2 5.52 -3.22 l0 -0.32 c0 -1.28 -0.32 -1.76 -1.38 -1.76 c-0.9 0 -1.38 0.4 -1.34 1.48 l-2.48 -0.46 c-0.22 -1.7 1.22 -2.92 3.96 -2.92 c2.72 0 3.74 1.08 3.74 3.6 l0 2.78 c0 0.9 0 1.44 1.12 1.26 z M161.57999999999998 16.86 l0 -0.78 c-1.72 0.02 -2.9 0.34 -2.9 1.38 c0 0.58 0.36 0.9 1.04 0.9 c0.88 0 1.78 -0.56 1.86 -1.5 z M172.37999999999997 17.02 l2.26 0.46 c-0.5 1.64 -1.62 2.8 -3.9 2.8 c-2.98 0 -4.44 -1.82 -4.44 -4.94 c0 -3.68 2.04 -4.9 4.52 -4.9 c2.28 0 3.98 1.08 3.76 3.1 l-2.5 0.48 c0.1 -1.24 -0.48 -1.66 -1.24 -1.66 c-1.52 0 -1.92 1.56 -1.92 3.1 c0 2.02 0.7 2.9 1.84 2.9 c0.9 0 1.48 -0.58 1.62 -1.34 z M175.61999999999998 12.64 l0 -1.92 l1.36 0 l0.1 -2.62 l2.36 0 l0 2.62 l2.58 0 l0 1.92 l-2.58 0 l0 4.48 c0 0.72 0.16 1.06 0.62 1.06 c0.48 0 0.68 -0.48 0.78 -1.28 l1.92 0.76 c-0.42 1.42 -1 2.54 -3.02 2.54 c-2.12 0 -2.8 -1.52 -2.8 -3.1 l0 -4.46 l-1.32 0 z M183.91999999999996 7.5 c0 -0.82 0.66 -1.48 1.48 -1.48 s1.48 0.66 1.48 1.48 s-0.66 1.48 -1.48 1.48 s-1.48 -0.66 -1.48 -1.48 z M184.15999999999997 20 l0 -9.28 l2.5 0 l0 9.28 l-2.5 0 z M194.73999999999995 17.02 l2.26 0.46 c-0.5 1.64 -1.62 2.8 -3.9 2.8 c-2.98 0 -4.44 -1.82 -4.44 -4.94 c0 -3.68 2.04 -4.9 4.52 -4.9 c2.28 0 3.98 1.08 3.76 3.1 l-2.5 0.48 c0.1 -1.24 -0.48 -1.66 -1.24 -1.66 c-1.52 0 -1.92 1.56 -1.92 3.1 c0 2.02 0.7 2.9 1.84 2.9 c0.9 0 1.48 -0.58 1.62 -1.34 z M206.91999999999996 20.12 c-1.92 0.24 -2.62 -0.52 -2.84 -1.24 c-0.44 0.66 -1.3 1.4 -2.76 1.4 c-1.66 0 -3.08 -0.9 -3.08 -2.64 c0 -2.16 2.16 -3.2 5.52 -3.22 l0 -0.32 c0 -1.28 -0.32 -1.76 -1.38 -1.76 c-0.9 0 -1.38 0.4 -1.34 1.48 l-2.48 -0.46 c-0.22 -1.7 1.22 -2.92 3.96 -2.92 c2.72 0 3.74 1.08 3.74 3.6 l0 2.78 c0 0.9 0 1.44 1.12 1.26 z M203.75999999999996 16.86 l0 -0.78 c-1.72 0.02 -2.9 0.34 -2.9 1.38 c0 0.58 0.36 0.9 1.04 0.9 c0.88 0 1.78 -0.56 1.86 -1.5 z M208.95999999999998 20 l0 -14.36 l2.5 0 l0 14.36 l-2.5 0 z  M218.45999999999995 14.84 l0 -8.06 l2.7 0 l0 8.06 c0 1.58 0.48 3.14 2.94 3.14 c2.42 0 3 -1.56 3 -3.18 l0 -8.02 l2.6 0 l0 8.02 c0 3.3 -1.62 5.48 -5.64 5.48 c-3.84 0 -5.6 -2.1 -5.6 -5.44 z M231.57999999999996 12.64 l0 -1.92 l1.36 0 l0.1 -2.62 l2.36 0 l0 2.62 l2.58 0 l0 1.92 l-2.58 0 l0 4.48 c0 0.72 0.16 1.06 0.62 1.06 c0.48 0 0.68 -0.48 0.78 -1.28 l1.92 0.76 c-0.42 1.42 -1 2.54 -3.02 2.54 c-2.12 0 -2.8 -1.52 -2.8 -3.1 l0 -4.46 l-1.32 0 z M244.25999999999993 20.28 c-3.44 0 -4.62 -2.18 -4.62 -4.92 s1.18 -4.92 4.62 -4.92 s4.62 2.14 4.62 4.92 s-1.18 4.92 -4.62 4.92 z M244.25999999999993 18.36 c1.6 0 2 -1.46 2 -3 s-0.4 -3 -2 -3 s-2 1.46 -2 3 s0.4 3 2 3 z M250.87999999999994 24.56 l0 -13.84 l2.34 0 l0 1.06 c0.62 -0.84 1.52 -1.34 2.84 -1.34 c2.96 0 3.88 2.44 3.88 4.76 c0 2.86 -1.4 5.08 -4.42 5.08 c-0.96 0 -1.64 -0.32 -2.14 -0.82 l0 5.1 l-2.5 0 z M255.35999999999993 18.36 c1.24 0 1.96 -0.9 1.96 -3.14 c0 -1.86 -0.56 -2.86 -1.82 -2.86 c-1.54 0 -2.12 1.3 -2.12 3.04 c0 1.68 0.5 2.96 1.98 2.96 z M261.7199999999999 7.5 c0 -0.82 0.66 -1.48 1.48 -1.48 s1.48 0.66 1.48 1.48 s-0.66 1.48 -1.48 1.48 s-1.48 -0.66 -1.48 -1.48 z M261.9599999999999 20 l0 -9.28 l2.5 0 l0 9.28 l-2.5 0 z M275.0399999999999 20.12 c-1.92 0.24 -2.62 -0.52 -2.84 -1.24 c-0.44 0.66 -1.3 1.4 -2.76 1.4 c-1.66 0 -3.08 -0.9 -3.08 -2.64 c0 -2.16 2.16 -3.2 5.52 -3.22 l0 -0.32 c0 -1.28 -0.32 -1.76 -1.38 -1.76 c-0.9 0 -1.38 0.4 -1.34 1.48 l-2.48 -0.46 c-0.22 -1.7 1.22 -2.92 3.96 -2.92 c2.72 0 3.74 1.08 3.74 3.6 l0 2.78 c0 0.9 0 1.44 1.12 1.26 z M271.87999999999994 16.86 l0 -0.78 c-1.72 0.02 -2.9 0.34 -2.9 1.38 c0 0.58 0.36 0.9 1.04 0.9 c0.88 0 1.78 -0.56 1.86 -1.5 z M277.0799999999999 20 l0 -9.28 l2.34 0 l0 1.62 c0.26 -0.58 1.08 -1.9 3.12 -1.9 c1.52 0 2.96 0.66 2.96 3.22 l0 6.34 l-2.5 0 l0 -5.68 c0 -1.2 -0.36 -1.74 -1.14 -1.74 c-1.48 0 -2.1 2.04 -2.28 2.82 l0 4.6 l-2.5 0 z M287.3199999999999 17.48 l2.36 -0.38 c-0.1 0.66 0.44 1.26 1.64 1.26 c0.78 0 1.46 -0.28 1.46 -0.88 c0 -1.54 -5.16 -0.68 -5.16 -4.14 c0 -1.7 1.24 -2.9 3.78 -2.9 c2.18 0 3.98 0.94 3.66 2.7 l-2.5 0.44 c0.12 -0.52 -0.14 -1.22 -1.24 -1.22 c-0.78 0 -1.16 0.3 -1.16 0.86 c0 1.64 5.2 0.66 5.2 4.1 c0 1.98 -1.76 2.96 -4.04 2.96 c-2.2 0 -4.2 -0.86 -4 -2.8 z"></path></g>
			</g>
		</svg>
	