<?xml version="1.0" standalone="yes"?><svg xmlns="http://www.w3.org/2000/svg" xmlns:xlink="http://www.w3.org/1999/xlink" version="1.1" width="3139.5348837209303" height="879.0697674418604" style="zoom: 1;"><g transform="scale(6.976744186046512) translate(10, 10)"><defs id="SvgjsDefs2860"></defs><g id="SvgjsG2861" featureKey="root" fill="#ffffff"></g><g id="SvgjsG2862" featureKey="symbol1" fill="#0671af" transform="matrix(0.07588075880758807,0,0,0.07588075880758807,-2.9214092140921406,11.154471544715447)"><polygon xmlns="http://www.w3.org/2000/svg" class="st0" points="696.7,239.6 508.5,37.5 508.5,441.7" style="stroke: #0671af; stroke-width: 1.1669; stroke-miterlimit: 10;"></polygon><polygon xmlns="http://www.w3.org/2000/svg" class="st0" points="822.2,454.8 832.1,178.8 546.2,464.6" style="stroke: #0671af; stroke-width: 1.1669; stroke-miterlimit: 10;"></polygon><polygon xmlns="http://www.w3.org/2000/svg" class="st0" points="758.9,695.7 961,507.5 556.8,507.5" style="stroke: #0671af; stroke-width: 1.1669; stroke-miterlimit: 10;"></polygon><polygon xmlns="http://www.w3.org/2000/svg" class="st0" points="543.7,821.2 819.7,831.1 533.9,545.2" style="stroke: #0671af; stroke-width: 1.1669; stroke-miterlimit: 10;"></polygon><polygon xmlns="http://www.w3.org/2000/svg" class="st0" points="302.8,757.9 491,960 491,555.8" style="stroke: #0671af; stroke-width: 1.1669; stroke-miterlimit: 10;"></polygon><polygon xmlns="http://www.w3.org/2000/svg" class="st0" points="177.3,542.7 167.4,818.7 453.3,532.9" style="stroke: #0671af; stroke-width: 1.1669; stroke-miterlimit: 10;"></polygon><polygon xmlns="http://www.w3.org/2000/svg" class="st0" points="240.6,301.8 38.5,490 442.7,490" style="stroke: #0671af; stroke-width: 1.1669; stroke-miterlimit: 10;"></polygon><polygon xmlns="http://www.w3.org/2000/svg" class="st0" points="455.8,176.3 179.8,166.4 465.6,452.3" style="stroke: #0671af; stroke-width: 1.1669; stroke-miterlimit: 10;"></polygon><circle xmlns="http://www.w3.org/2000/svg" class="st0" cx="502.7" cy="497" r="31.4" style="stroke: #0671af; stroke-width: 1.1669; stroke-miterlimit: 10;"></circle></g><g id="SvgjsG2863" featureKey="text1" fill="#0671af" transform="matrix(3.013033477187585,0,0,3.013033477187585,87.74592694796627,-19.286686202830065)"></g><g id="SvgjsG2864" featureKey="text3" fill="#0671af" transform="matrix(1.1523078955046617,0,0,1.1523078955046617,89.65430761761202,72.82362952624531)"></g></g></svg>